<?xml version="1.0" encoding="utf-8"?>
<!-- Generator: Adobe Illustrator 16.0.0, SVG Export Plug-In . SVG Version: 6.00 Build 0)  -->
<!DOCTYPE svg PUBLIC "-//W3C//DTD SVG 1.1//EN" "http://www.w3.org/Graphics/SVG/1.1/DTD/svg11.dtd">
<svg version="1.1" id="Layer_1" xmlns="http://www.w3.org/2000/svg" xmlns:xlink="http://www.w3.org/1999/xlink" x="0px" y="0px"
	 width="384px" height="409.602px" viewBox="0 0 384 409.602" enable-background="new 0 0 384 409.602" xml:space="preserve">
<g>
	<path fill="#FFFFFF" d="M364.801,224H19.199C8.613,224,0,232.613,0,243.199c0,3.535,2.867,6.402,6.398,6.402
		c3.536,0,6.403-2.867,6.403-6.402c0-3.527,2.871-6.398,6.398-6.398h5.246L9.586,325.953c-2.246,13.492,0.391,27.383,7.426,39.109
		l8.59,14.309v23.027c0,3.973,3.23,7.203,7.199,7.203h318.398c3.969,0,7.199-3.23,7.199-7.203v-23.027l8.59-14.309
		c7.035-11.727,9.672-25.617,7.426-39.109l-14.859-89.152h5.246c3.527,0,6.398,2.871,6.398,6.398c0,3.535,2.867,6.402,6.402,6.402
		c3.531,0,6.398-2.867,6.398-6.402C384,232.613,375.387,224,364.801,224L364.801,224z M324.012,358.477l-7.637,12.723h-18.922
		l4.523-11.305c3.508-8.77,4.809-18.367,3.766-27.754l-10.59-95.34h19.426l15.211,91.258
		C331.535,338.551,329.484,349.355,324.012,358.477L324.012,358.477z M264.48,371.199l4.27-14.953
		c1.895-6.633,2.578-13.484,2.031-20.363l-7.855-99.082h19.344l10.754,96.754c0.809,7.301-0.203,14.766-2.934,21.586l-6.422,16.059
		H264.48z M230.77,371.199l1.316-23.402c0.078-1.367,0.105-2.758,0.086-4.133L230.5,236.801h19.586l7.938,100.094
		c0.422,5.352-0.109,10.68-1.582,15.84l-5.27,18.465H230.77z M198.398,371.199V236.801h19.301l1.672,107.063
		c0.02,1.07-0.004,2.152-0.063,3.219l-1.359,24.117H198.398z M166.012,371.199l-1.496-23.953c-0.075-1.188-0.102-2.391-0.082-3.574
		l1.855-106.871h19.313v134.398H166.012z M67.625,371.199l-7.637-12.723c-5.472-9.121-7.523-19.922-5.777-30.418l15.211-91.258
		h19.426l-10.59,95.34c-1.047,9.387,0.258,18.984,3.765,27.754l4.524,11.305H67.625z M100.332,371.199l-6.422-16.059
		c-2.73-6.82-3.742-14.285-2.933-21.586l10.753-96.754h19.34l-7.91,99.016c-0.551,6.926,0.141,13.824,2.063,20.5l4.277,14.883
		H100.332z M132.82,371.199l-5.297-18.418c-1.492-5.195-2.031-10.559-1.601-15.945l7.988-100.035h19.578l-1.851,106.648
		c-0.028,1.52,0.008,3.066,0.101,4.594l1.45,23.156H132.82z M22.211,328.059l15.211-91.258h19.023l-14.859,89.152
		c-2.246,13.492,0.391,27.383,7.426,39.109l3.683,6.137h-17.07l-7.637-12.723C22.516,349.355,20.465,338.551,22.211,328.059
		L22.211,328.059z M345.602,396.801H38.398V384h25.594c0.004,0,0.008,0,0.012,0s0.008,0,0.016,0h31.96c0.008,0,0.016,0,0.02,0
		c0.012,0,0.023,0,0.035,0h31.942c0.007,0,0.015,0,0.019,0c0.008,0,0.016,0,0.024,0h127.96c0.008,0,0.016,0,0.023,0
		c0.004,0,0.012,0,0.02,0h31.941c0.012,0,0.023,0,0.035,0c0.004,0,0.012,0,0.02,0h31.961c0.008,0,0.012,0,0.016,0s0.008,0,0.012,0
		h25.594V396.801z M356.012,358.477l-7.637,12.723h-17.07l3.684-6.137c7.035-11.727,9.672-25.617,7.426-39.109l-14.859-89.152
		h19.023l15.211,91.258C363.535,338.551,361.484,349.355,356.012,358.477L356.012,358.477z M356.012,358.477"/>
	<path fill="#FFFFFF" d="M70.398,211.199c3.536,0,6.403-2.863,6.403-6.398v-192h230.398v192c0,3.535,2.867,6.398,6.402,6.398
		c3.531,0,6.398-2.863,6.398-6.398v-192C320,5.742,314.258,0,307.199,0H76.801C69.742,0,64,5.742,64,12.801v192
		C64,208.336,66.867,211.199,70.398,211.199L70.398,211.199z M70.398,211.199"/>
	<path fill="#FFFFFF" d="M288,211.199c3.535,0,6.398-2.863,6.398-6.398V32c0-3.535-2.863-6.398-6.398-6.398H96
		c-3.535,0-6.398,2.863-6.398,6.398v172.801c0,3.535,2.863,6.398,6.398,6.398s6.398-2.863,6.398-6.398v-96h64
		c3.536,0,6.403-2.867,6.403-6.403c0-3.531-2.867-6.398-6.403-6.398h-64V38.398h83.204v166.403c0,3.535,2.863,6.398,6.398,6.398
		s6.398-2.863,6.398-6.398v-96h83.203v96C281.602,208.336,284.465,211.199,288,211.199L288,211.199z M198.398,96V38.398h83.203V96
		H198.398z M198.398,96"/>
</g>
</svg>
