<?xml version="1.0" encoding="utf-8"?>
<!-- Generator: Adobe Illustrator 16.0.0, SVG Export Plug-In . SVG Version: 6.00 Build 0)  -->
<!DOCTYPE svg PUBLIC "-//W3C//DTD SVG 1.1//EN" "http://www.w3.org/Graphics/SVG/1.1/DTD/svg11.dtd">
<svg version="1.1" id="Layer_1" xmlns="http://www.w3.org/2000/svg" xmlns:xlink="http://www.w3.org/1999/xlink" x="0px" y="0px"
	 width="36.182px" height="52.01px" viewBox="18.964 1.131 36.182 52.01" enable-background="new 18.964 1.131 36.182 52.01"
	 xml:space="preserve">
<g>
	<g>
		<path fill="#FFFFFF" d="M21.226,52.011c0,0.624,0.506,1.13,1.13,1.13h29.398c0.623,0,1.13-0.506,1.13-1.13V41.834H21.226V52.011z
			 M35.924,44.096h2.262c0.624,0,1.131,0.507,1.131,1.131s-0.507,1.131-1.131,1.131h-2.262c-0.624,0-1.13-0.507-1.13-1.131
			S35.3,44.096,35.924,44.096z M54.015,28.267h-1.131V6.784c0-3.116-2.537-5.653-5.653-5.653H26.879
			c-3.116,0-5.653,2.537-5.653,5.653v21.482h-1.131c-0.624,0-1.131,0.506-1.131,1.131c0,0.624,0.507,1.13,1.131,1.13h1.131v9.045
			h31.658v-9.045h1.131c0.624,0,1.131-0.506,1.131-1.13C55.146,28.773,54.639,28.267,54.015,28.267z M38.186,35.051h-2.262
			c-0.624,0-1.13-0.507-1.13-1.131s0.506-1.131,1.13-1.131h2.262c0.624,0,1.131,0.507,1.131,1.131S38.81,35.051,38.186,35.051z
			 M50.624,28.267H39.317v-2.261h1.131c0.623,0,1.13-0.507,1.13-1.131s-0.507-1.13-1.13-1.13h-1.131v-3.392
			c0-1.87-1.522-3.392-3.393-3.392s-3.392,1.522-3.392,3.392c0,0.624,0.506,1.13,1.13,1.13s1.131-0.506,1.131-1.13
			s0.506-1.131,1.13-1.131c0.625,0,1.131,0.507,1.131,1.131v3.392h-1.131c-0.624,0-1.13,0.506-1.13,1.13s0.506,1.131,1.13,1.131
			h1.131v2.261H23.487V6.784c0-1.87,1.522-3.392,3.392-3.392h20.352c1.87,0,3.393,1.522,3.393,3.392V28.267z M26.879,12.438
			c0.289,0,0.579-0.111,0.8-0.331l4.523-4.522c0.441-0.441,0.441-1.158,0-1.599c-0.441-0.441-1.158-0.441-1.599,0l-4.522,4.522
			c-0.441,0.441-0.441,1.158,0,1.599C26.3,12.327,26.59,12.438,26.879,12.438z M35.126,8.245l-9.045,9.045
			c-0.441,0.441-0.441,1.158,0,1.599c0.222,0.222,0.511,0.331,0.8,0.331s0.579-0.111,0.801-0.331l9.045-9.045
			c0.439-0.441,0.439-1.156-0.002-1.599C36.284,7.804,35.567,7.804,35.126,8.245z"/>
	</g>
</g>
</svg>
