<?xml version="1.0" encoding="utf-8"?>
<!-- Generator: Adobe Illustrator 16.0.0, SVG Export Plug-In . SVG Version: 6.00 Build 0)  -->
<!DOCTYPE svg PUBLIC "-//W3C//DTD SVG 1.1//EN" "http://www.w3.org/Graphics/SVG/1.1/DTD/svg11.dtd">
<svg version="1.1" id="Layer_1" xmlns="http://www.w3.org/2000/svg" xmlns:xlink="http://www.w3.org/1999/xlink" x="0px" y="0px"
	 width="153.391px" height="153.391px" viewBox="0 0 153.391 153.391" enable-background="new 0 0 153.391 153.391"
	 xml:space="preserve">
<g>
	<path d="M147.789,0H5.602C2.508,0,0,2.508,0,5.602v142.187c0,3.094,2.508,5.602,5.602,5.602h142.187
		c3.094,0,5.602-2.508,5.602-5.602V5.602C153.391,2.508,150.883,0,147.789,0L147.789,0z M92.398,142.188H77.121l65.07-53.5v12.496
		l-49.277,40.516C92.73,141.852,92.559,142.02,92.398,142.188L92.398,142.188z M11.199,11.199h130.989v62.993l-82.701,67.996H11.199
		V11.199z M109.953,142.188l32.238-26.504v26.504H109.953z M109.953,142.188"/>
</g>
</svg>
