<?xml version="1.0" encoding="utf-8"?>
<!-- Generator: Adobe Illustrator 16.0.0, SVG Export Plug-In . SVG Version: 6.00 Build 0)  -->
<!DOCTYPE svg PUBLIC "-//W3C//DTD SVG 1.1//EN" "http://www.w3.org/Graphics/SVG/1.1/DTD/svg11.dtd">
<svg version="1.1" id="Layer_1" xmlns="http://www.w3.org/2000/svg" xmlns:xlink="http://www.w3.org/1999/xlink" x="0px" y="0px"
	 width="48.953px" height="33.485px" viewBox="12.579 10.04 48.953 33.485" enable-background="new 12.579 10.04 48.953 33.485"
	 xml:space="preserve">
<g>
	<path fill="#FFFFFF" d="M61.477,35.711L61.477,35.711c-0.107-0.543-0.271-0.977-0.488-1.411l-3.365-9.172V23.5
		c0-3.745-3.039-6.784-6.783-6.784H39.877c-3.745,0-6.784,3.039-6.784,6.784v1.628l-3.582,9.606
		c-0.054,0.162-0.108,0.271-0.163,0.434l-0.108,0.326c-0.055,0.162-0.055,0.325-0.055,0.434c0,0.109,0,0.271,0,0.381v3.311v3.906
		h1.628v-3.093h29.09v3.093h1.628v-3.906v-3.257c0-0.108,0-0.163,0-0.271S61.532,35.873,61.477,35.711z M34.287,26.593h3.256v1.357
		c0,0.434,0.38,0.814,0.814,0.814H52.36c0.434,0,0.814-0.38,0.814-0.814v-1.357h3.256l2.117,5.861
		c-0.326-0.108-0.706-0.163-1.086-0.163H33.256c-0.38,0-0.76,0.054-1.14,0.163L34.287,26.593z M51.545,22.469v4.667h-5.373v-4.667
		H51.545z M44.545,27.136h-5.373v-4.667h5.373V27.136z M34.722,23.554c0-2.822,2.333-5.156,5.156-5.156H50.84
		c2.822,0,5.156,2.334,5.156,5.156v1.411h-2.822v-3.311c0-0.434-0.381-0.814-0.814-0.814H38.358c-0.435,0-0.814,0.38-0.814,0.814
		v3.311h-2.822V23.554z M30.814,36.362c0-0.325,0.054-0.597,0.163-0.868l0.054-0.109c0.38-0.867,1.249-1.465,2.226-1.465h24.205
		c0.868,0,1.574,0.434,2.008,1.086l0.38,1.031c0,0.107,0.055,0.217,0.055,0.325v2.388h-29.09V36.362z"/>
	<path fill="#FFFFFF" d="M13.393,42.061h0.163v1.465h1.628v-1.465h8.575v1.465h1.628v-1.465h0.163c0.435,0,0.814-0.38,0.814-0.814
		V25.02c0-1.628-1.357-2.985-2.985-2.985h-2.985V17.53h3.636c0.271,0,0.489-0.108,0.651-0.271c0.163-0.163,0.217-0.434,0.163-0.651
		l-0.869-4.179c-0.271-1.411-1.52-2.388-2.931-2.388h-3.148c-1.411,0-2.659,1.031-2.931,2.388l-0.868,4.179
		c-0.054,0.217,0,0.488,0.163,0.651c0.163,0.163,0.38,0.271,0.651,0.271h3.799v4.504h-3.148c-1.628,0-2.985,1.357-2.985,2.985
		v16.227C12.579,41.681,12.958,42.061,13.393,42.061z M16.541,12.646c0.108-0.651,0.706-1.085,1.356-1.085h3.148
		c0.651,0,1.194,0.434,1.357,1.085l0.651,3.202h-7.164L16.541,12.646z M24.681,32.4H14.207v-3.528h10.475V32.4z M14.207,34.028
		h10.475v6.404H14.207V34.028z M15.563,23.663h7.761c0.76,0,1.357,0.597,1.357,1.357v2.225H14.207V25.02
		C14.207,24.26,14.804,23.663,15.563,23.663z"/>
	<rect x="18.006" y="29.741" fill="#FFFFFF" width="2.876" height="1.628"/>
	<rect x="18.006" y="24.64" fill="#FFFFFF" width="2.876" height="1.628"/>
	<rect x="18.006" y="35.168" fill="#FFFFFF" width="2.876" height="1.629"/>
</g>
</svg>
