<?xml version="1.0" encoding="utf-8"?>
<!-- Generator: Adobe Illustrator 16.0.0, SVG Export Plug-In . SVG Version: 6.00 Build 0)  -->
<!DOCTYPE svg PUBLIC "-//W3C//DTD SVG 1.1//EN" "http://www.w3.org/Graphics/SVG/1.1/DTD/svg11.dtd">
<svg version="1.1" id="Layer_1" xmlns="http://www.w3.org/2000/svg" xmlns:xlink="http://www.w3.org/1999/xlink" x="0px" y="0px"
	 width="381.664px" height="409.602px" viewBox="0 0 381.664 409.602" enable-background="new 0 0 381.664 409.602"
	 xml:space="preserve">
<g>
	<path d="M374.848,395.969h-13.633V89.273c0-3.761-3.051-6.812-6.813-6.812h-20.449V48.383c0-3.766-3.051-6.817-6.813-6.817H279.43
		V0h-13.629v41.566h-47.707c-3.766,0-6.816,3.055-6.816,6.817v34.078h-20.445c-3.766,0-6.816,3.051-6.816,6.812v68.157H27.262
		c-3.766,0-6.817,3.05-6.817,6.812v231.727H6.816c-3.765,0-6.816,3.051-6.816,6.813c0,3.766,3.051,6.82,6.816,6.82h368.032
		c3.766,0,6.816-3.055,6.816-6.816S378.609,395.969,374.848,395.969L374.848,395.969z M184.016,395.969H34.078v-224.91h149.938
		V395.969z M224.906,55.199h95.418v27.262h-95.418V55.199z M347.586,395.969H197.645V96.09h149.941V395.969z M347.586,395.969"/>
	<path d="M258.984,109.723h-40.891c-3.766,0-6.816,3.05-6.816,6.812v68.156c0,3.766,3.051,6.817,6.816,6.817h40.891
		c3.766,0,6.816-3.055,6.816-6.817v-68.156C265.801,112.773,262.75,109.723,258.984,109.723L258.984,109.723z M252.168,177.875
		h-27.262v-54.523h27.262V177.875z M252.168,177.875"/>
	<path d="M327.141,109.723h-40.895c-3.762,0-6.813,3.05-6.813,6.812v68.156c0,3.766,3.051,6.817,6.813,6.817h40.895
		c3.762,0,6.816-3.055,6.816-6.817v-68.156C333.957,112.773,330.902,109.723,327.141,109.723L327.141,109.723z M320.324,177.875
		h-27.262v-54.523h27.262V177.875z M320.324,177.875"/>
	<path d="M258.984,205.137h-40.891c-3.766,0-6.816,3.055-6.816,6.816v68.152c0,3.766,3.051,6.816,6.816,6.816h40.891
		c3.766,0,6.816-3.051,6.816-6.816v-68.152C265.801,208.188,262.75,205.137,258.984,205.137L258.984,205.137z M252.168,273.293
		h-27.262V218.77h27.262V273.293z M252.168,273.293"/>
	<path d="M327.141,205.137h-40.895c-3.762,0-6.813,3.055-6.813,6.816v68.152c0,3.766,3.051,6.816,6.813,6.816h40.895
		c3.762,0,6.816-3.051,6.816-6.816v-68.152C333.957,208.188,330.902,205.137,327.141,205.137L327.141,205.137z M320.324,273.293
		h-27.262V218.77h27.262V273.293z M320.324,273.293"/>
	<path d="M258.984,300.555h-40.891c-3.766,0-6.816,3.051-6.816,6.813v68.156c0,3.766,3.051,6.816,6.816,6.816h40.891
		c3.766,0,6.816-3.055,6.816-6.816v-68.156C265.801,303.605,262.75,300.555,258.984,300.555L258.984,300.555z M252.168,368.707
		h-27.262v-54.523h27.262V368.707z M252.168,368.707"/>
	<path d="M327.141,300.555h-40.895c-3.762,0-6.813,3.051-6.813,6.813v68.156c0,3.766,3.051,6.816,6.813,6.816h40.895
		c3.762,0,6.816-3.055,6.816-6.816v-68.156C333.957,303.605,330.902,300.555,327.141,300.555L327.141,300.555z M320.324,368.707
		h-27.262v-54.523h27.262V368.707z M320.324,368.707"/>
	<path d="M95.414,293.738H54.523c-3.765,0-6.816,3.051-6.816,6.816v68.152c0,3.766,3.051,6.816,6.816,6.816h40.891
		c3.766,0,6.816-3.055,6.816-6.816v-68.152C102.23,296.789,99.18,293.738,95.414,293.738L95.414,293.738z M88.602,361.891H61.34
		v-54.523h27.262V361.891z M88.602,361.891"/>
	<path d="M163.57,293.738h-40.894c-3.762,0-6.813,3.051-6.813,6.816v68.152c0,3.766,3.051,6.816,6.813,6.816h40.894
		c3.762,0,6.817-3.055,6.817-6.816v-68.152C170.387,296.789,167.332,293.738,163.57,293.738L163.57,293.738z M156.754,361.891
		h-27.262v-54.523h27.262V361.891z M156.754,361.891"/>
	<path d="M95.414,191.508H54.523c-3.765,0-6.816,3.051-6.816,6.812v68.156c0,3.762,3.051,6.816,6.816,6.816h40.891
		c3.766,0,6.816-3.055,6.816-6.816V198.32C102.23,194.559,99.18,191.508,95.414,191.508L95.414,191.508z M88.602,259.66H61.34
		v-54.523h27.262V259.66z M88.602,259.66"/>
	<path d="M163.57,191.508h-40.894c-3.762,0-6.813,3.051-6.813,6.812v68.156c0,3.762,3.051,6.816,6.813,6.816h40.894
		c3.762,0,6.817-3.055,6.817-6.816V198.32C170.387,194.559,167.332,191.508,163.57,191.508L163.57,191.508z M156.754,259.66h-27.262
		v-54.523h27.262V259.66z M156.754,259.66"/>
</g>
</svg>
