<?xml version="1.0" encoding="utf-8"?>
<!-- Generator: Adobe Illustrator 16.0.0, SVG Export Plug-In . SVG Version: 6.00 Build 0)  -->
<!DOCTYPE svg PUBLIC "-//W3C//DTD SVG 1.1//EN" "http://www.w3.org/Graphics/SVG/1.1/DTD/svg11.dtd">
<svg version="1.1" id="Layer_1" xmlns="http://www.w3.org/2000/svg" xmlns:xlink="http://www.w3.org/1999/xlink" x="0px" y="0px"
	 width="48.866px" height="45.537px" viewBox="12.633 6.079 48.866 45.537" enable-background="new 12.633 6.079 48.866 45.537"
	 xml:space="preserve">
<path fill="#FFFFFF" d="M59.361,45.48h0.76c0.76,0,1.356-0.598,1.356-1.357V22.414c0-0.76-0.597-1.356-1.356-1.356h-1.845
	l1.736-2.334c0.162-0.217,0.162-0.488,0.055-0.706c-0.109-0.217-0.326-0.38-0.598-0.38H47.258c-0.271,0-0.488,0.163-0.598,0.38
	c-0.107,0.217-0.107,0.489,0.055,0.706l1.736,2.334h-4.559V6.784c0-0.38-0.325-0.706-0.705-0.706H17.409
	c-0.38,0-0.706,0.326-0.706,0.706v14.273H13.99c-0.76,0-1.357,0.597-1.357,1.356v21.709c0,0.76,0.597,1.357,1.357,1.357h0.76
	l-2.063,5.155c-0.163,0.435,0.163,0.923,0.651,0.923h2.713c0.163,0,0.326-0.055,0.489-0.217l5.861-5.861h29.307l5.915,5.915
	c0.109,0.108,0.326,0.217,0.489,0.217h2.714c0.543,0.055,0.813-0.651,0.597-1.03L59.361,45.48z M58.113,18.995l-1.031,1.357h-7.489
	l-0.977-1.357H58.113z M58.764,42.766H37.76V23.771h21.004V42.766z M15.346,42.766v-12.21h21.058v12.21H15.346z M18.06,7.49h24.423
	v13.568H18.06V7.49z M36.404,23.771v5.427H15.346v-5.427H36.404z M15.727,50.201h-1.411l1.899-4.775h4.288L15.727,50.201z
	 M58.384,50.201l-4.776-4.775h4.287l1.9,4.775H58.384z"/>
<path fill="#FFFFFF" d="M41.125,35.277c1.14,0,2.063-0.923,2.063-2.063s-0.923-2.063-2.063-2.063s-2.063,0.923-2.063,2.063
	S39.986,35.277,41.125,35.277z M41.125,32.563c0.38,0,0.705,0.326,0.705,0.706s-0.325,0.706-0.705,0.706s-0.705-0.326-0.705-0.706
	S40.746,32.563,41.125,32.563z"/>
<path fill="#FFFFFF" d="M26.201,28.493c1.14,0,2.063-0.922,2.063-2.063c0-1.14-0.923-2.008-2.063-2.008s-2.062,0.922-2.062,2.063
	C24.139,27.625,25.061,28.493,26.201,28.493z M26.201,25.779c0.38,0,0.706,0.326,0.706,0.706s-0.326,0.651-0.706,0.651
	s-0.706-0.325-0.706-0.706C25.495,26.05,25.821,25.779,26.201,25.779z"/>
<path fill="#FFFFFF" d="M26.201,31.207c-1.14,0-2.062,0.922-2.062,2.062s0.922,2.009,2.062,2.009s2.063-0.923,2.063-2.063
	S27.34,31.207,26.201,31.207z M26.201,33.92c-0.38,0-0.706-0.326-0.706-0.706s0.326-0.651,0.706-0.651s0.706,0.326,0.706,0.706
	S26.581,33.92,26.201,33.92z"/>
<path fill="#FFFFFF" d="M33.69,8.846H20.123c-0.38,0-0.706,0.326-0.706,0.706v9.443c0,0.38,0.326,0.706,0.706,0.706H33.69
	c0.38,0,0.706-0.326,0.706-0.706V9.498C34.342,9.118,34.016,8.846,33.69,8.846z M32.985,18.344H20.773v-8.141h12.211V18.344z"/>
<path fill="#FFFFFF" d="M38.413,8.846c-1.52,0-2.714,1.194-2.714,2.714c0,1.52,1.194,2.713,2.714,2.713
	c1.52,0,2.713-1.194,2.713-2.713C41.125,10.04,39.932,8.846,38.413,8.846z M38.413,12.917c-0.76,0-1.357-0.597-1.357-1.356
	s0.598-1.357,1.357-1.357s1.355,0.597,1.355,1.357S39.172,12.917,38.413,12.917z"/>
<path fill="#FFFFFF" d="M36.404,16.987c-0.38,0-0.706,0.325-0.706,0.705v1.303c0,0.38,0.326,0.706,0.706,0.706
	s0.651-0.326,0.651-0.706v-1.357C37.055,17.258,36.729,16.987,36.404,16.987z"/>
<path fill="#FFFFFF" d="M38.413,16.987c-0.381,0-0.706,0.325-0.706,0.705v1.303c0,0.38,0.325,0.706,0.706,0.706
	c0.379,0,0.705-0.326,0.705-0.706v-1.357C39.118,17.258,38.792,16.987,38.413,16.987z"/>
<path fill="#FFFFFF" d="M40.474,16.987c-0.38,0-0.706,0.325-0.706,0.705v1.303c0,0.38,0.326,0.706,0.706,0.706
	s0.706-0.326,0.706-0.706v-1.357C41.125,17.258,40.799,16.987,40.474,16.987z"/>
</svg>
