<?xml version="1.0" encoding="utf-8"?>
<!-- Generator: Adobe Illustrator 16.0.0, SVG Export Plug-In . SVG Version: 6.00 Build 0)  -->
<!DOCTYPE svg PUBLIC "-//W3C//DTD SVG 1.1//EN" "http://www.w3.org/Graphics/SVG/1.1/DTD/svg11.dtd">
<svg version="1.1" id="Layer_1" xmlns="http://www.w3.org/2000/svg" xmlns:xlink="http://www.w3.org/1999/xlink" x="0px" y="0px"
	 width="1418.754px" height="1491.557px" viewBox="0 0 1418.754 1491.557" enable-background="new 0 0 1418.754 1491.557"
	 xml:space="preserve">
<path fill="#262262" d="M0,942.365c4.496-0.848,9.092-1.349,13.459-2.629c5.305-1.557,10.417-3.771,15.613-5.699
	c0.297,0.411,0.593,0.822,0.89,1.232c-2.644,7.9-5.117,15.864-8.022,23.667c-1.065,2.86-1.458,5.419,1.208,6.988
	c1.469,0.865,3.953,0.813,5.701,0.274c18.792-5.803,35.056-16.676,51.812-26.459c12.612-7.364,25.253-9.746,39.599-5.672
	c9.178,2.604,18.941,3.245,28.479,4.469c17.742,2.274,29.409,8.53,31.448,27.578c4.049,37.789,17.813,72.747,30.266,108.121
	c3.914,11.117,7.646,22.307,11.821,33.326c12.731,33.595,34.771,60.907,59.94,85.662c23.621,23.232,48.938,44.619,76.319,63.461
	c9.313,6.41,18.116,13.578,27.026,20.56c24.032,18.822,51.164,31.331,80.237,40.108c12.067,3.643,23.914,8.019,35.851,12.091
	c3.958,1.352,6.069,7.503,3.708,10.954c-6.583,9.62-13.342,18.98-22.433,26.639c-4.442,3.742-7.326,9.411-6.947,15.873
	c0.313,5.319-1.146,11.832,1.396,15.699c5.003,7.612,11.721,14.391,18.803,20.205c2.95,2.422,8.636,1.682,13.104,2.009
	c1.815,0.133,3.704-0.722,4.5-0.895c-1.02-7.032-2.063-13.339-2.817-19.68c-0.822-6.917,1.145-13.329,3.208-19.923
	c2.526-8.067,5.884-15.398,11.335-21.865c3.106-3.684,5.741-7.76,8.662-11.604c5.364-7.063,16.233-6.716,21.806,0.247
	c3.273,4.089,4.787,8.17,3.388,13.289c-0.389,1.421-0.407,2.981-0.367,4.473c0.317,11.94-6.017,19.518-16.147,24.512
	c-9.503,4.687-17.103,17.627-16.357,28.118c0.165,2.327,0.657,4.727,0.288,6.978c-1.575,9.62,2.282,16.743,9.867,22.146
	c2.219,1.581,4.848,2.588,7.288,3.856c0.367-0.425,0.735-0.851,1.104-1.275c-1.372-4.184-2.568-8.435-4.167-12.528
	c-1.644-4.208-2.606-8.172,1.092-11.87c8.292,6.001,9.404,18.633,21.629,23.331c-0.983-5.62-1.257-10.056-2.589-14.145
	c-2.19-6.726-0.388-12.363,3.417-17.755c4.316-6.114,7.738-13.274,13.229-18.049c7.912-6.877,17.064-12.492,26.226-17.701
	c5.362-3.052,11.224-0.765,15.739,3.125c7.804,6.72,15.313,13.632,20.849,22.652c3.566,5.813,8.567,10.92,13.617,15.596
	c6.221,5.763,7.623,12.877,3.106,21.146c-1.337,2.447-4.563,5.702-1.09,7.696c3.862,2.216,4.427-2.741,5.891-4.95
	c2.57-3.874,4.762-8,7.114-12.02c5.241-8.957,2.457-27.821-5.232-34.951c-8.18-7.586-16.651-14.875-24.532-22.755
	c-3.51-3.509-5.887-8.149-9.455-13.245c4.543-0.739,7.582-1.557,10.647-1.685c24.3-1.019,48.66-1.187,72.893-3.049
	c21.689-1.666,43.371-4.409,64.788-8.197c9.069-1.604,17.839-6.406,26.027-11.026c7.156-4.041,11.556-11.426,10.373-19.746
	c-1.79-12.578,3.515-20.945,12.797-28.215c3.5-2.741,6.376-5.996,11.255-3.732c1.589,0.734,3.044,1.813,4.445,2.884
	c5.12,3.915,9.87,8.415,15.336,11.751c19.444,11.861,38.842,23.856,58.819,34.771c13.071,7.143,27.503,11.796,40.595,18.907
	c9.621,5.229,19.48,11.341,26.729,19.332c16.088,17.736,30.854,36.704,45.681,55.543c12.237,15.55,23.887,31.564,35.584,47.529
	c3.331,4.546,8.214,4.323,12.754,5.481c9.288,2.371,18.321-0.093,27.432-1.291c4.776-0.629,9.556-1.313,14.357-1.667
	c8.193-0.606,10.414-2.964,9.564-11.595c22.397,12.899,45.232,23.225,71.29,22.767c0.426-0.479,0.854-0.957,1.279-1.438
	c-3.529-4.403-6.7-9.163-10.646-13.152c-19.805-20.02-40.111-39.546-59.683-59.786c-39.954-41.325-79.781-82.78-119.089-124.717
	c-7.605-8.114-13.799-18.107-18.593-28.207c-18.363-38.682-35.898-77.755-53.718-116.692c-2.518-5.498-0.39-8.96,5.402-10.298
	c12.191-2.816,24.065-0.987,36.063,1.334c10.224,1.978,19.545-0.341,28.416-6.274c3.865-2.584,9.378-2.746,14.174-3.878
	c1.768-0.418,3.622-0.612,5.441-0.646c8.623-0.158,16.026-2.918,22.436-8.959c3.314-3.123,7.765-3.664,12.587-3.25
	c13.159,1.135,25.593-0.666,35.081-11.338c1.875-2.109,4.012-4.006,6.149-5.859c4.008-3.48,8.112-6.216,13.729-7.407
	c7.059-1.498,13.742-4.854,20.479-7.673c1.346-0.563,2.359-2.203,3.244-3.533c3.127-4.702,6.034-9.551,9.202-14.225
	c4.964-7.325,13.361-9.432,20.527-13.484c5.104-2.888,10.059-6.367,14.253-10.433c4.554-4.413,6.198-10.472,6.109-16.912
	c-0.099-7.093,0.671-8.091,7.274-10.38c21.957-7.608,34.313-25.363,33.531-48.271c-0.266-7.777-3.105-14.549-8.294-20.346
	c-4.314-4.821-8.621-9.653-12.428-15.282c6.135,2.159,12.336,4.151,18.391,6.518c8.732,3.413,17.446,0.399,26.165,0.269
	c0.424-0.007,0.961-0.361,1.241-0.715c5.62-7.109,13.586-12.248,16.966-21.272c4.844-12.934,9.932-25.723,10.183-39.844
	c0.237-13.455-4.522-24.657-14.311-33.821c-1.383-1.296-2.543-2.83-4.608-5.157c6.586-0.339,11.959-0.513,17.317-0.913
	c11.447-0.856,19.637-6.602,24.642-16.88c8.409-17.269,11.834-35.607,10.974-54.682c-0.568-12.564-7.203-22.968-13.401-33.398
	c-0.709-1.193-2.227-1.947-3.449-2.785c-4.916-3.365-9.862-6.683-14.559-11.246c4.516,0,9.047-0.257,13.542,0.045
	c18.638,1.251,35.38-10.698,39.189-30.961c2.646-14.084,5.925-28.096,4.295-42.513c-1.759-15.562-4.297-31.016-14.274-43.936
	c-2.715-3.514-7.813-5.401-7.366-10.999c0.113-1.417-0.018-3.235,0.782-4.158c19.766-22.765,25.606-51.346,33.241-79.176
	c1.449-5.284,2.896-10.575,4.123-15.913c2.863-12.461-3.709-21.576-16.544-21.322c-10.745,0.211-21.456,2.175-32.182,3.366
	c-1.8,0.2-3.597,0.414-6.916,0.798c2.316-1.645,3.39-2.503,4.554-3.214c5.675-3.47,11.379-6.896,17.065-10.348
	c14.113-8.563,25.374-19.941,33.243-34.468c11.366-20.981,19.45-43.292,25.554-66.285c3.276-12.347-3.717-19.29-15.933-15.521
	c-11.858,3.66-23.298,8.694-34.866,13.267c-5.957,2.356-11.792,5.022-18.307,6.541c10.92-9.882,22.441-19.188,32.591-29.806
	c10.193-10.664,19.849-22.064,28.215-34.191c8.272-11.989,15.287-24.98,21.665-38.108c6.359-13.089,14.07-25.77,17.358-40.39
	c-11.056-3.782-19.816-1.502-28.262,4.822c-42.507,31.83-85.159,63.464-127.777,95.144c-1.356,1.009-2.892,1.773-4.344,2.652
	c-0.388-0.465-0.772-0.93-1.159-1.395c2.908-2.627,5.973-5.102,8.7-7.905c26.844-27.584,53.447-55.379,76.125-86.631
	c11.89-16.386,20.839-34.349,28.606-52.948c4.159-9.958,8.313-19.925,12.113-30.022c1.201-3.189,1.495-6.795,1.748-10.244
	c0.213-2.903-5.753-6.35-8.524-4.999c-1.924,0.938-3.665,2.276-5.419,3.532c-26.096,18.664-48.574,41.532-72.547,62.654
	c-32.865,28.961-65.247,58.472-98.021,87.538c-7.449,6.604-15.663,12.347-24.302,17.888c1.381-1.82,2.654-3.734,4.156-5.446
	c38.698-44.075,75.39-89.737,108.659-138.076c14.937-21.701,23.823-46.308,33.192-70.654c1.55-4.026,3.436-8.034,4.178-12.226
	c0.717-4.049,0.155-8.324,0.155-12.591c-5.723-0.522-9.63,0.968-13.596,3.965c-19.286,14.589-34.448,33.327-51.099,50.527
	c-22.242,22.977-43.582,46.826-65.574,70.048c-19.697,20.799-39.767,41.249-59.646,61.875c-2.22,2.302-4.284,4.752-7.209,6.556
	c0.956-1.429,1.846-2.906,2.878-4.278c31.935-42.455,61.107-86.736,89.025-131.934c19.229-31.132,31.319-64.759,39.961-99.934
	c0.861-3.509,2.105-7.205,1.757-10.67c-0.666-6.587-5.619-8.517-10.687-4.036c-6.835,6.046-13.66,12.291-19.433,19.318
	c-36.149,44.008-71.913,88.332-107.983,132.405c-29.736,36.335-59.196,72.917-89.734,108.571
	c-32.717,38.198-66.544,75.444-99.898,113.094c-23.858,26.931-48.5,53.212-71.42,80.918
	c-29.821,36.045-56.961,74.145-82.679,113.284c-9.269,14.105-21.256,26.403-31.648,39.799c-6.915,8.913-14.381,17.716-19.43,27.667
	c-4.728,9.318-6.841,20.021-9.643,30.241c-2.117,7.728-3.933,15.458-9.7,21.483c-0.916,0.958-1.715,2.04-2.694,2.924
	c-14.083,12.7-28.263,25.293-42.261,38.083c-9.819,8.971-19.559,18.045-29.023,27.387c-4.965,4.899-9.192,10.539-13.895,15.718
	c-3.014,3.318-5.952,2.758-7.457-1.26c-7.455-19.893-15.267-39.665-22.158-59.752c-3.483-10.154-5.232-20.898-7.878-31.351
	c-0.971-3.835-1.554-8.021-3.538-11.304c-6.988-11.563-7.878-24.529-9.396-37.353c-1.31-11.07-2.152-22.195-3.268-33.288
	c-0.183-1.81-0.248-3.867-1.146-5.332c-4.629-7.551-4.328-15.785-4.145-24.161c0.35-15.991,0.398-31.989,0.399-47.984
	c0.001-2.45-0.923-4.899-1.45-7.507c-5.707,1.396-5.74,5.797-6.146,8.997c-1.165,9.225-1.578,18.547-2.209,27.835
	c-0.402,5.932-0.667,11.872-1.959,17.778c0-3.217-0.154-6.441,0.025-9.649c1.254-22.443,2.402-44.894,3.955-67.316
	c0.711-10.28,2.438-20.487,3.327-30.76c0.317-3.667-0.471-7.432-0.822-12.056c-5.195,4.259-4.852,9.268-5.544,13.832
	c-2.398,15.771-4.033,31.69-7.245,47.288c-2.283,11.087-6.639,21.747-10.068,32.6c-0.582-0.141-1.164-0.278-1.747-0.418
	c1.447-10.321,2.952-20.635,4.324-30.966c1.423-10.716,2.704-21.448,4.071-32.171c1.346-10.556,2.508-21.143,4.142-31.654
	c1.657-10.667,3.873-21.245,5.691-31.891c1.744-10.211,6.674-19.97,5.612-30.589c-0.824-0.28-1.65-0.56-2.477-0.84
	c-1.455,3.252-3.425,6.374-4.283,9.775c-6.828,27.042-13.32,54.167-20.203,81.193c-2.021,7.944-4.969,15.653-7.492,23.47
	c-0.535-0.138-1.071-0.274-1.608-0.412c1.224-8.953,2.007-17.994,3.751-26.845c6.449-32.734,13.061-65.438,19.935-98.087
	c2.972-14.11,6.804-28.039,10.06-42.092c0.521-2.255,0.072-4.734,0.072-7.108c-0.676-0.233-1.351-0.466-2.025-0.699
	c-1.485,2.307-3.535,4.427-4.37,6.949c-9.34,28.204-18.544,56.454-27.685,84.724c-13.989,43.266-27.74,86.609-41.927,129.812
	c-5.326,16.217-12.356,31.896-17.235,48.229c-6.948,23.259-11.414,47.088-13.477,71.378c-0.723,8.503-2.525,17.206-5.551,25.166
	c-6.661,17.528-10.313,35.061-5.045,53.559c1.503,5.277-0.396,9.817-2.751,14.229c-1.72,3.219-3.989,6.144-5.753,9.343
	c-1.501,2.724-3.377,3.745-6.632,4.038c-4.669,0.42-7.352-1.238-9.727-5.021c-13.354-21.267-29.271-40.718-47.42-57.803
	c-15.836-14.906-34.354-26.564-56.408-31.449c-13.105-2.902-25.822-7.521-38.865-10.763c-13.149-3.266-26.5-3.803-40.093-2.375
	c-18.725,1.968-37.269,4.467-55.323,10.032c-23.052,7.104-42.286,20.437-60.518,35.79c-38.651,32.549-60.355,74.362-68.817,123.612
	c-2.019,11.753-3.703,23.563-5.774,35.307c-0.386,2.187-1.653,4.328-2.909,6.228c-3.67,5.554-7.401,11.076-11.359,16.426
	c-9.732,13.154-18.222,26.982-23.913,42.409c-0.435,1.18-1.292,2.203-1.954,3.299C0,938.365,0,940.365,0,942.365z"/>
</svg>
