<?xml version="1.0" encoding="utf-8"?>
<!-- Generator: Adobe Illustrator 16.0.0, SVG Export Plug-In . SVG Version: 6.00 Build 0)  -->
<!DOCTYPE svg PUBLIC "-//W3C//DTD SVG 1.1//EN" "http://www.w3.org/Graphics/SVG/1.1/DTD/svg11.dtd">
<svg version="1.1" id="Layer_1" xmlns="http://www.w3.org/2000/svg" xmlns:xlink="http://www.w3.org/1999/xlink" x="0px" y="0px"
	 width="274.289px" height="274.289px" viewBox="0 0 274.289 274.289" enable-background="new 0 0 274.289 274.289"
	 xml:space="preserve">
<g>
	<path d="M268.289,0H6C2.688,0,0,2.687,0,6v262.289c0,3.316,2.688,6,6,6h262.289c3.316,0,6-2.684,6-6V6
		C274.289,2.687,271.605,0,268.289,0L268.289,0z M262.289,12v40.66H12V12H262.289z M12,262.289V64.66h250.289v197.633H12V262.289z
		 M12,262.289"/>
	<path d="M137.145,84.101c-44.055,0-79.899,35.84-79.899,79.899c0,44.054,35.844,79.898,79.899,79.898
		c44.054,0,79.898-35.845,79.898-79.898C217.043,119.941,181.199,84.101,137.145,84.101L137.145,84.101z M137.145,96.101
		c29.183,0,54.121,18.508,63.703,44.399c-15.645,1.242-24.586,7.355-32.57,12.82c-8.582,5.875-15.996,10.948-31.668,10.948
		c-15.671,0-23.082-5.073-31.664-10.948c-7.808-5.345-16.527-11.313-31.535-12.731C82.965,114.648,107.93,96.101,137.145,96.101
		L137.145,96.101z M137.145,231.898c-37.438,0-67.899-30.462-67.899-67.898c0-3.965,0.363-7.844,1.016-11.621
		c13.152,0.75,20.039,5.46,27.902,10.843c8.934,6.117,19.059,13.052,38.445,13.052c19.387,0,29.512-6.935,38.446-13.052
		c8.074-5.526,15.113-10.343,28.965-10.897c0.66,3.797,1.023,7.69,1.023,11.676C205.043,201.437,174.586,231.898,137.145,231.898
		L137.145,231.898z M137.145,231.898"/>
	<path d="M218.551,37.441h20.297c3.316,0,6-2.687,6-6c0-3.312-2.684-6-6-6h-20.297c-3.313,0-6,2.688-6,6
		C212.551,34.754,215.238,37.441,218.551,37.441L218.551,37.441z M218.551,37.441"/>
	<path d="M166.551,37.441h20.297c3.316,0,6-2.687,6-6c0-3.312-2.684-6-6-6h-20.297c-3.313,0-6,2.688-6,6
		C160.551,34.754,163.238,37.441,166.551,37.441L166.551,37.441z M166.551,37.441"/>
</g>
</svg>
