<?xml version="1.0" encoding="utf-8"?>
<!-- Generator: Adobe Illustrator 16.0.0, SVG Export Plug-In . SVG Version: 6.00 Build 0)  -->
<!DOCTYPE svg PUBLIC "-//W3C//DTD SVG 1.1//EN" "http://www.w3.org/Graphics/SVG/1.1/DTD/svg11.dtd">
<svg version="1.1" id="Layer_1" xmlns="http://www.w3.org/2000/svg" xmlns:xlink="http://www.w3.org/1999/xlink" x="0px" y="0px"
	 width="42.441px" height="49.931px" viewBox="15.835 2.171 42.441 49.931" enable-background="new 15.835 2.171 42.441 49.931"
	 xml:space="preserve">
<g>
	<path fill="#FFFFFF" d="M53.934,19.049H38.195v-6.838h1.573v1.954c0,0.597,0.489,1.085,1.086,1.085
		c0.598,0,1.086-0.489,1.086-1.085v-1.954h0.868c0.488,0,0.923-0.217,1.248-0.597s0.435-0.869,0.325-1.357l-0.922-4.613
		c-0.435-2.008-2.171-3.474-4.233-3.474H34.83c-2.063,0-3.854,1.465-4.233,3.474l-0.922,4.613c-0.108,0.488,0,0.977,0.326,1.357
		s0.76,0.597,1.248,0.597h4.776v6.838H20.177c-2.388,0-4.342,1.954-4.342,4.342v20.732c0,2.225,1.682,4.07,3.853,4.287v2.605
		c0,0.597,0.489,1.086,1.085,1.086c0.597,0,1.085-0.489,1.085-1.086V48.41h30.393v2.605c0,0.597,0.488,1.086,1.085,1.086
		c0.598,0,1.086-0.489,1.086-1.086V48.41c2.171-0.217,3.854-2.063,3.854-4.287V23.391C58.276,20.949,56.322,19.049,53.934,19.049z
		 M31.899,10.04l0.814-3.961c0.217-1.031,1.085-1.737,2.117-1.737h4.396c1.031,0,1.899,0.706,2.116,1.737l0.814,3.961H31.899z
		 M35.97,46.294H20.177c-1.194,0-2.171-0.978-2.171-2.171V29.904H35.97V46.294z M56.104,44.123c0,1.193-0.977,2.171-2.17,2.171
		H38.141v-16.39h17.963V44.123z M56.104,27.733H18.006v-4.342c0-1.194,0.977-2.171,2.171-2.171h33.757
		c1.193,0,2.17,0.977,2.17,2.171V27.733z"/>
	<path fill="#FFFFFF" d="M39.768,23.5h-5.426c-0.597,0-1.085,0.489-1.085,1.085c0,0.597,0.488,1.085,1.085,1.085h5.426
		c0.598,0,1.086-0.488,1.086-1.085C40.854,23.988,40.366,23.5,39.768,23.5z"/>
	<path fill="#FFFFFF" d="M31.628,40.758c0.597,0,1.085-0.488,1.085-1.085v-5.427c0-0.597-0.488-1.085-1.085-1.085
		s-1.085,0.488-1.085,1.085v5.427C30.542,40.27,31.031,40.758,31.628,40.758z"/>
	<path fill="#FFFFFF" d="M42.483,40.758c0.597,0,1.085-0.488,1.085-1.085v-5.427c0-0.597-0.488-1.085-1.085-1.085
		c-0.598,0-1.086,0.488-1.086,1.085v5.427C41.397,40.27,41.885,40.758,42.483,40.758z"/>
</g>
</svg>
