<?xml version="1.0" encoding="utf-8"?>
<!-- Generator: Adobe Illustrator 16.0.0, SVG Export Plug-In . SVG Version: 6.00 Build 0)  -->
<!DOCTYPE svg PUBLIC "-//W3C//DTD SVG 1.1//EN" "http://www.w3.org/Graphics/SVG/1.1/DTD/svg11.dtd">
<svg version="1.1" id="Layer_1" xmlns="http://www.w3.org/2000/svg" xmlns:xlink="http://www.w3.org/1999/xlink" x="0px" y="0px"
	 width="1418.754px" height="1491.557px" viewBox="0 0 1418.754 1491.557" enable-background="new 0 0 1418.754 1491.557"
	 xml:space="preserve">
<path fill-rule="evenodd" clip-rule="evenodd" fill="#262262" d="M1418.754,942.365c-4.496-0.847-9.092-1.348-13.459-2.629
	c-5.305-1.556-10.417-3.771-15.613-5.699c-0.297,0.411-0.593,0.822-0.89,1.233c2.644,7.9,5.117,15.864,8.022,23.667
	c1.065,2.86,1.458,5.419-1.208,6.988c-1.469,0.865-3.953,0.813-5.701,0.274c-18.792-5.802-35.056-16.675-51.812-26.459
	c-12.612-7.364-25.253-9.746-39.599-5.672c-9.178,2.605-18.941,3.246-28.479,4.469c-17.742,2.275-29.409,8.53-31.448,27.578
	c-4.049,37.789-17.813,72.747-30.266,108.121c-3.914,11.118-7.646,22.307-11.821,33.326c-12.731,33.595-34.771,60.908-59.94,85.663
	c-23.621,23.232-48.937,44.619-76.319,63.461c-9.314,6.41-18.116,13.578-27.027,20.559c-24.032,18.822-51.164,31.331-80.237,40.108
	c-12.067,3.643-23.914,8.019-35.85,12.091c-3.958,1.352-6.07,7.503-3.708,10.955c6.583,9.62,13.341,18.98,22.432,26.638
	c4.443,3.742,7.326,9.411,6.947,15.873c-0.313,5.32,1.146,11.832-1.396,15.7c-5.003,7.612-11.721,14.39-18.803,20.205
	c-2.95,2.422-8.636,1.681-13.104,2.008c-1.816,0.133-3.704-0.721-4.5-0.894c1.019-7.032,2.063-13.339,2.817-19.68
	c0.822-6.917-1.144-13.329-3.208-19.923c-2.526-8.067-5.884-15.398-11.335-21.865c-3.106-3.684-5.741-7.76-8.662-11.604
	c-5.364-7.063-16.233-6.716-21.806,0.247c-3.273,4.089-4.787,8.17-3.387,13.289c0.388,1.421,0.407,2.981,0.367,4.472
	c-0.318,11.941,6.016,19.518,16.147,24.512c9.503,4.687,17.103,17.627,16.358,28.118c-0.165,2.327-0.657,4.727-0.288,6.978
	c1.575,9.62-2.282,16.743-9.867,22.145c-2.219,1.581-4.848,2.588-7.288,3.857c-0.368-0.425-0.736-0.851-1.104-1.276
	c1.372-4.183,2.568-8.434,4.167-12.528c1.644-4.208,2.606-8.172-1.092-11.87c-8.292,6.001-9.404,18.633-21.629,23.331
	c0.984-5.62,1.257-10.056,2.589-14.145c2.191-6.725,0.388-12.363-3.417-17.754c-4.316-6.115-7.738-13.275-13.229-18.049
	c-7.912-6.877-17.065-12.493-26.226-17.702c-5.362-3.051-11.223-0.764-15.739,3.125c-7.804,6.72-15.314,13.632-20.849,22.653
	c-3.566,5.812-8.567,10.92-13.617,15.596c-6.221,5.762-7.623,12.877-3.106,21.146c1.337,2.447,4.563,5.702,1.089,7.696
	c-3.862,2.216-4.426-2.741-5.89-4.95c-2.57-3.874-4.762-8-7.114-12.019c-5.242-8.957-2.457-27.822,5.232-34.952
	c8.18-7.585,16.651-14.874,24.532-22.754c3.51-3.509,5.887-8.15,9.455-13.245c-4.543-0.74-7.582-1.557-10.647-1.685
	c-24.3-1.019-48.66-1.186-72.893-3.049c-21.689-1.666-43.371-4.409-64.788-8.197c-9.069-1.604-17.839-6.406-26.027-11.027
	c-7.156-4.04-11.556-11.425-10.373-19.746c1.79-12.578-3.515-20.945-12.797-28.215c-3.5-2.741-6.376-5.996-11.255-3.732
	c-1.589,0.735-3.044,1.813-4.445,2.884c-5.12,3.915-9.87,8.415-15.336,11.751c-19.445,11.861-38.842,23.856-58.82,34.771
	c-13.071,7.143-27.502,11.796-40.594,18.908c-9.621,5.228-19.481,11.341-26.73,19.332c-16.088,17.736-30.853,36.704-45.68,55.543
	c-12.238,15.549-23.887,31.564-35.584,47.529c-3.331,4.546-8.214,4.323-12.754,5.481c-9.288,2.371-18.322-0.092-27.432-1.291
	c-4.776-0.629-9.556-1.312-14.357-1.667c-8.194-0.606-10.414-2.964-9.565-11.594c-22.397,12.899-45.232,23.224-71.29,22.766
	c-0.426-0.479-0.853-0.957-1.279-1.437c3.529-4.404,6.7-9.163,10.647-13.153c19.804-20.019,40.111-39.545,59.682-59.786
	c39.954-41.325,79.781-82.78,119.089-124.717c7.605-8.114,13.799-18.107,18.593-28.207c18.363-38.681,35.898-77.754,53.718-116.692
	c2.517-5.498,0.389-8.96-5.403-10.298c-12.191-2.816-24.065-0.987-36.062,1.334c-10.224,1.978-19.545-0.341-28.416-6.274
	c-3.866-2.584-9.378-2.746-14.174-3.878c-1.768-0.418-3.622-0.612-5.441-0.646c-8.623-0.159-16.027-2.919-22.436-8.959
	c-3.314-3.124-7.765-3.665-12.587-3.25c-13.159,1.134-25.593-0.667-35.081-11.338c-1.875-2.11-4.012-4.006-6.149-5.86
	c-4.008-3.48-8.112-6.216-13.729-7.407c-7.058-1.498-13.742-4.855-20.478-7.673c-1.346-0.563-2.36-2.203-3.244-3.533
	c-3.127-4.702-6.034-9.551-9.202-14.225c-4.964-7.325-13.362-9.431-20.528-13.484c-5.103-2.888-10.059-6.367-14.253-10.433
	c-4.553-4.413-6.198-10.471-6.109-16.912c0.098-7.093-0.671-8.091-7.275-10.38c-21.956-7.608-34.312-25.363-33.531-48.271
	c0.266-7.778,3.106-14.549,8.294-20.346c4.315-4.821,8.621-9.653,12.428-15.282c-6.135,2.159-12.336,4.151-18.391,6.517
	c-8.732,3.413-17.446,0.4-26.165,0.269c-0.423-0.007-0.961-0.361-1.241-0.715c-5.62-7.109-13.586-12.248-16.966-21.272
	c-4.843-12.934-9.931-25.723-10.182-39.844c-0.238-13.455,4.522-24.657,14.31-33.821c1.383-1.296,2.543-2.831,4.608-5.158
	c-6.585-0.338-11.959-0.512-17.317-0.913c-11.447-0.856-19.637-6.601-24.642-16.88c-8.409-17.268-11.834-35.607-10.973-54.681
	c0.568-12.565,7.203-22.968,13.401-33.399c0.709-1.193,2.227-1.947,3.45-2.785c4.915-3.365,9.862-6.683,14.558-11.246
	c-4.515,0-9.047-0.257-13.542,0.045c-18.638,1.251-35.38-10.698-39.189-30.961c-2.646-14.084-5.925-28.096-4.295-42.513
	c1.759-15.561,4.297-31.015,14.274-43.935c2.715-3.514,7.813-5.402,7.366-10.999c-0.113-1.417,0.018-3.236-0.782-4.158
	c-19.765-22.765-25.606-51.346-33.241-79.176c-1.449-5.284-2.896-10.575-4.123-15.913c-2.863-12.461,3.709-21.576,16.544-21.323
	c10.745,0.211,21.456,2.175,32.182,3.367c1.799,0.2,3.596,0.414,6.916,0.797c-2.317-1.644-3.39-2.502-4.554-3.213
	c-5.675-3.47-11.379-6.897-17.066-10.348c-14.113-8.564-25.374-19.941-33.243-34.468c-11.366-20.981-19.45-43.292-25.553-66.285
	c-3.277-12.347,3.716-19.29,15.932-15.521c11.858,3.66,23.298,8.694,34.866,13.267c5.957,2.356,11.792,5.022,18.307,6.541
	c-10.92-9.882-22.441-19.188-32.591-29.806c-10.193-10.664-19.848-22.064-28.215-34.191c-8.272-11.989-15.287-24.98-21.665-38.108
	C11,246.519,3.288,233.837,0,219.218c11.056-3.782,19.816-1.502,28.262,4.822c42.506,31.83,85.159,63.464,127.777,95.144
	c1.356,1.009,2.892,1.773,4.344,2.652c0.387-0.465,0.772-0.93,1.159-1.395c-2.908-2.627-5.973-5.102-8.7-7.905
	c-26.844-27.584-53.448-55.379-76.125-86.631c-11.89-16.386-20.839-34.349-28.607-52.948c-4.159-9.958-8.313-19.925-12.113-30.022
	c-1.201-3.189-1.495-6.795-1.748-10.244c-0.213-2.903,5.753-6.35,8.524-4.999c1.924,0.938,3.665,2.276,5.419,3.532
	c26.096,18.664,48.575,41.532,72.547,62.654c32.866,28.961,65.247,58.472,98.021,87.538c7.449,6.604,15.663,12.347,24.301,17.888
	c-1.38-1.82-2.654-3.734-4.156-5.446c-38.698-44.075-75.389-89.737-108.659-138.076c-14.936-21.701-23.823-46.308-33.192-70.654
	c-1.55-4.026-3.436-8.034-4.178-12.226c-0.717-4.049-0.155-8.324-0.155-12.591c5.722-0.522,9.63,0.968,13.595,3.965
	c19.286,14.589,34.449,33.327,51.099,50.527c22.242,22.977,43.582,46.826,65.574,70.048c19.698,20.799,39.767,41.249,59.646,61.875
	c2.219,2.302,4.284,4.752,7.209,6.556c-0.956-1.429-1.846-2.906-2.878-4.278c-31.935-42.455-61.108-86.736-89.025-131.934
	c-19.23-31.132-31.32-64.759-39.961-99.934c-0.862-3.509-2.106-7.205-1.757-10.67c0.666-6.587,5.619-8.517,10.686-4.036
	c6.835,6.046,13.66,12.291,19.433,19.318c36.149,44.008,71.913,88.332,107.983,132.405c29.736,36.335,59.196,72.917,89.734,108.571
	c32.717,38.198,66.544,75.444,99.899,113.094c23.858,26.931,48.5,53.213,71.42,80.919c29.821,36.045,56.961,74.144,82.679,113.284
	c9.268,14.105,21.255,26.403,31.648,39.799c6.915,8.913,14.381,17.715,19.43,27.667c4.727,9.318,6.841,20.02,9.642,30.241
	c2.117,7.727,3.933,15.458,9.7,21.483c0.916,0.958,1.715,2.04,2.695,2.924c14.083,12.7,28.262,25.293,42.261,38.083
	c9.819,8.971,19.558,18.045,29.023,27.387c4.965,4.899,9.192,10.539,13.894,15.717c3.014,3.319,5.953,2.758,7.458-1.259
	c7.455-19.893,15.266-39.665,22.158-59.752c3.483-10.155,5.232-20.899,7.878-31.351c0.97-3.835,1.553-8.02,3.538-11.304
	c6.988-11.562,7.878-24.529,9.396-37.352c1.31-11.07,2.153-22.195,3.268-33.288c0.182-1.81,0.248-3.867,1.146-5.332
	c4.629-7.551,4.328-15.785,4.145-24.161c-0.35-15.991-0.399-31.99-0.4-47.985c-0.001-2.45,0.923-4.899,1.451-7.507
	c5.707,1.397,5.74,5.797,6.145,8.998c1.165,9.224,1.578,18.546,2.209,27.835c0.402,5.931,0.667,11.872,1.959,17.778
	c0-3.217,0.154-6.442-0.025-9.65c-1.254-22.443-2.403-44.893-3.955-67.316c-0.711-10.28-2.438-20.487-3.328-30.76
	c-0.317-3.667,0.471-7.431,0.823-12.055c5.195,4.258,4.851,9.267,5.544,13.832c2.398,15.77,4.033,31.69,7.245,47.288
	c2.283,11.087,6.638,21.747,10.068,32.599c0.582-0.14,1.164-0.278,1.747-0.418c-1.447-10.321-2.952-20.634-4.324-30.965
	c-1.423-10.716-2.704-21.449-4.071-32.171c-1.346-10.556-2.508-21.143-4.142-31.655c-1.657-10.667-3.873-21.245-5.691-31.89
	c-1.744-10.211-6.674-19.97-5.613-30.589c0.825-0.28,1.651-0.56,2.477-0.84c1.455,3.252,3.425,6.374,4.283,9.775
	c6.828,27.041,13.32,54.167,20.203,81.193c2.022,7.944,4.969,15.653,7.492,23.47c0.536-0.138,1.072-0.275,1.609-0.413
	c-1.224-8.953-2.007-17.994-3.751-26.844c-6.449-32.735-13.061-65.439-19.935-98.087c-2.971-14.11-6.803-28.039-10.059-42.092
	c-0.522-2.255-0.073-4.734-0.073-7.108c0.676-0.233,1.351-0.466,2.026-0.699c1.485,2.307,3.535,4.427,4.37,6.949
	c9.34,28.204,18.544,56.454,27.684,84.724c13.99,43.266,27.741,86.61,41.927,129.812c5.326,16.217,12.357,31.895,17.236,48.229
	c6.948,23.259,11.414,47.088,13.476,71.378c0.723,8.503,2.526,17.206,5.551,25.166c6.661,17.529,10.313,35.061,5.045,53.559
	c-1.503,5.277,0.396,9.817,2.751,14.229c1.72,3.219,3.989,6.144,5.753,9.343c1.501,2.724,3.377,3.745,6.632,4.038
	c4.669,0.42,7.351-1.238,9.726-5.021c13.354-21.267,29.271-40.718,47.42-57.803c15.836-14.906,34.354-26.565,56.408-31.449
	c13.106-2.903,25.822-7.522,38.865-10.763c13.149-3.266,26.5-3.803,40.093-2.375c18.725,1.968,37.269,4.467,55.323,10.032
	c23.052,7.104,42.286,20.437,60.518,35.79c38.651,32.549,60.355,74.363,68.817,123.613c2.019,11.752,3.703,23.563,5.774,35.306
	c0.386,2.187,1.653,4.328,2.909,6.228c3.67,5.553,7.401,11.076,11.359,16.425c9.732,13.155,18.222,26.983,23.913,42.41
	c0.435,1.179,1.292,2.203,1.954,3.298C1418.754,938.365,1418.754,940.365,1418.754,942.365z"/>
</svg>
