<?xml version="1.0" encoding="utf-8"?>
<!-- Generator: Adobe Illustrator 16.0.0, SVG Export Plug-In . SVG Version: 6.00 Build 0)  -->
<!DOCTYPE svg PUBLIC "-//W3C//DTD SVG 1.1//EN" "http://www.w3.org/Graphics/SVG/1.1/DTD/svg11.dtd">
<svg version="1.1" id="Layer_1" xmlns="http://www.w3.org/2000/svg" xmlns:xlink="http://www.w3.org/1999/xlink" x="0px" y="0px"
	 width="25.28px" height="18.199px" viewBox="0 0 25.28 18.199" enable-background="new 0 0 25.28 18.199" xml:space="preserve">
<g>
	<path fill="#FFFFFF" d="M12.641,0C7.828,0,3.28,2.125,0.163,5.83c-0.12,0.143-0.177,0.324-0.16,0.51
		c0.016,0.187,0.104,0.355,0.248,0.476C0.536,7.058,1,7.012,1.233,6.735c2.85-3.392,7.007-5.336,11.408-5.336
		c4.399,0,8.556,1.943,11.406,5.331c0.235,0.287,0.698,0.326,0.982,0.088c0.145-0.122,0.232-0.29,0.248-0.477
		c0.017-0.187-0.04-0.368-0.16-0.511C22,2.125,17.453,0,12.641,0z"/>
	<circle fill="#FFFFFF" cx="12.641" cy="16.299" r="1.9"/>
	<path fill="#FFFFFF" d="M12.641,4.801c-3.397,0-6.604,1.499-8.801,4.111C3.719,9.056,3.661,9.237,3.677,9.424
		C3.693,9.61,3.78,9.778,3.923,9.898c0.288,0.239,0.749,0.198,0.988-0.085c1.931-2.296,4.749-3.614,7.73-3.614
		c2.98,0,5.798,1.318,7.73,3.616c0.133,0.156,0.328,0.247,0.535,0.247c0.118,0,0.292-0.028,0.45-0.162
		c0.146-0.122,0.233-0.291,0.249-0.477s-0.042-0.367-0.163-0.51C19.245,6.3,16.037,4.801,12.641,4.801z"/>
	<path fill="#FFFFFF" d="M12.641,9.602c-1.981,0-3.851,0.874-5.129,2.396c-0.12,0.143-0.177,0.322-0.161,0.507
		c0.016,0.187,0.104,0.356,0.248,0.477c0.159,0.137,0.331,0.165,0.448,0.165c0.208,0,0.406-0.092,0.542-0.251
		C9.593,11.691,11.071,11,12.641,11c1.569,0,3.047,0.691,4.055,1.898c0.132,0.156,0.329,0.247,0.538,0.247
		c0.117,0,0.289-0.028,0.442-0.16c0.149-0.126,0.237-0.295,0.254-0.481c0.016-0.185-0.041-0.364-0.16-0.506
		C16.49,10.476,14.621,9.602,12.641,9.602z"/>
</g>
</svg>
