<?xml version="1.0" encoding="utf-8"?>
<!-- Generator: Adobe Illustrator 16.0.0, SVG Export Plug-In . SVG Version: 6.00 Build 0)  -->
<!DOCTYPE svg PUBLIC "-//W3C//DTD SVG 1.1//EN" "http://www.w3.org/Graphics/SVG/1.1/DTD/svg11.dtd">
<svg version="1.1" id="Layer_1" xmlns="http://www.w3.org/2000/svg" xmlns:xlink="http://www.w3.org/1999/xlink" x="0px" y="0px"
	 width="26.88px" height="20px" viewBox="0 0 26.88 20" enable-background="new 0 0 26.88 20" xml:space="preserve">
<g>
	<g>
		<defs>
			<rect id="SVGID_1_" width="26.88" height="20"/>
		</defs>
		<clipPath id="SVGID_2_">
			<use xlink:href="#SVGID_1_"  overflow="visible"/>
		</clipPath>
		<path clip-path="url(#SVGID_2_)" fill-rule="evenodd" clip-rule="evenodd" d="M13.141,14.398c-1.325,0-2.399,1.079-2.399,2.402
			c0,1.324,1.074,2.398,2.399,2.398c1.324,0,2.398-1.074,2.398-2.398C15.539,15.478,14.465,14.398,13.141,14.398L13.141,14.398z
			 M26,6.008C22.789,2.191,18.102,0,13.141,0C8.18,0,3.492,2.191,0.281,6.008C-0.145,6.516-0.078,7.273,0.43,7.699
			C0.652,7.887,0.926,7.98,1.199,7.98c0.344,0,0.684-0.144,0.918-0.425c2.754-3.278,6.77-5.157,11.024-5.157
			c4.25,0,8.269,1.879,11.023,5.153c0.234,0.285,0.574,0.429,0.918,0.429c0.273,0,0.547-0.093,0.77-0.281
			C26.359,7.273,26.426,6.516,26,6.008L26,6.008z M13.141,4.801c-3.543,0-6.891,1.562-9.184,4.289
			c-0.426,0.508-0.363,1.266,0.145,1.691c0.226,0.188,0.5,0.281,0.773,0.281c0.34,0,0.68-0.145,0.918-0.426
			c1.836-2.184,4.512-3.438,7.348-3.438c2.835,0,5.511,1.254,7.347,3.438c0.238,0.281,0.578,0.426,0.918,0.426
			c0.273,0,0.547-0.089,0.773-0.281c0.508-0.426,0.574-1.184,0.145-1.691C20.031,6.363,16.684,4.801,13.141,4.801L13.141,4.801z
			 M13.141,9.602c-2.129,0-4.137,0.938-5.512,2.574c-0.426,0.505-0.359,1.262,0.148,1.688c0.223,0.192,0.496,0.282,0.77,0.282
			c0.344,0,0.683-0.146,0.922-0.427C10.383,12.625,11.723,12,13.141,12c1.417,0,2.757,0.625,3.671,1.719
			c0.238,0.281,0.578,0.427,0.922,0.427c0.273,0,0.547-0.09,0.77-0.282c0.508-0.426,0.574-1.183,0.148-1.688
			C17.277,10.539,15.27,9.602,13.141,9.602L13.141,9.602z M13.141,9.602"/>
	</g>
</g>
</svg>
